HIERARCHY
ROOT Hips
{
	OFFSET	0.00  0.00  0.00 
	CHANNELS 6 Xposition Yposition Zposition Xrotation Zrotation Yrotation
	JOINT Abdomen
	{
		OFFSET	0.00 0.00 0.00
		CHANNELS 3 Xrotation Zrotation Yrotation
		JOINT Chest
		{
			OFFSET	0.00 6.25 -0.56
			CHANNELS 3 Xrotation Zrotation Yrotation
			JOINT neckDummy
			{
				OFFSET	0.00 8.24 -0.23
				CHANNELS 3 Xrotation Yrotation Zrotation
				JOINT Neck
				{
					OFFSET	0.00 2.70 0.27
					CHANNELS 3 Xrotation Zrotation Yrotation
					JOINT Head
					{
						OFFSET	0.00 2.71 0.32
						CHANNELS 3 Xrotation Zrotation Yrotation
						End Site
						{
							OFFSET 0.00 10.59 0.00
						}
					}
				}
			}
			JOINT LeftCollar
			{
				OFFSET	0.59 8.24 -0.23
				CHANNELS 3 Yrotation Zrotation Xrotation
				JOINT LeftUpArm
				{
					OFFSET	4.52 0.03 -0.04
					CHANNELS 3 Zrotation Yrotation Xrotation
					JOINT LeftLowArm
					{
						OFFSET	13.86 0.13 -0.30
						CHANNELS 3 Yrotation Zrotation Xrotation
						JOINT LeftHand
						{
							OFFSET	10.93 -0.04 0.15
							CHANNELS 3 Zrotation Yrotation Xrotation
							End Site
							{
								OFFSET 10.59 0.00 0.00
							}
						}
					}
				}
			}
			JOINT RightCollar
			{
				OFFSET	-0.59 8.24 -0.23
				CHANNELS 3 Yrotation Zrotation Xrotation
				JOINT RightUpArm
				{
					OFFSET	-4.52 0.03 -0.04
					CHANNELS 3 Zrotation Yrotation Xrotation
					JOINT RightLowArm
					{
						OFFSET	-13.86 0.13 -0.30
						CHANNELS 3 Yrotation Zrotation Xrotation
						JOINT RightHand
						{
							OFFSET	-10.93 -0.04 0.15
							CHANNELS 3 Zrotation Yrotation Xrotation
							End Site
							{
								OFFSET -10.59 0.00 0.00
							}
						}
					}
				}
			}
		}
	}
	JOINT LeftUpLeg
	{
		OFFSET	3.28 -4.40 -0.39
		CHANNELS 3 Xrotation Zrotation Yrotation
		JOINT LeftLowLeg
		{
			OFFSET	-0.23 -20.19 0.08
			CHANNELS 3 Xrotation Zrotation Yrotation
			JOINT LeftFoot
			{
				OFFSET	0.09 -16.89 -0.20
				CHANNELS 3 Xrotation Yrotation Zrotation
				End Site
				{
					OFFSET 0.00 0.00 10.59
				}
			}
		}
	}
	JOINT RightUpLeg
	{
		OFFSET	-3.28 -4.40 -0.39
		CHANNELS 3 Xrotation Zrotation Yrotation
		JOINT RightLowLeg
		{
			OFFSET	0.23 -20.19 0.08
			CHANNELS 3 Xrotation Zrotation Yrotation
			JOINT RightFoot
			{
				OFFSET	-0.09 -16.89 -0.20
				CHANNELS 3 Xrotation Yrotation Zrotation
				End Site
				{
					OFFSET 0.00 0.00 10.59
				}
			}
		}
	}
}
MOTION
Frames:     15
Frame Time: 0.033333
-1.01	42.72	-6.99	-12.07	-7.91	-23.82	48.90	-1.94	-3.36	-17.05	0.00	0.00	0.00	0.00	0.00	6.43	3.06	-6.24	-25.06	1.77	39.10	20.00	6.94	-2.00	-48.50	10.23	17.71	-45.95	5.00	-20.83	-3.62	14.96	-0.49	-20.00	3.58	0.65	62.77	-14.85	15.10	60.50	-5.00	-14.94	3.13	-16.71	-0.64	14.33	14.29	-11.66	23.48	-9.69	25.00	-0.46	0.25	2.11	-11.40	-4.57	12.07	24.65	7.06	-9.19	-0.16	-0.06	-2.29
-1.32	42.66	-7.55	-11.36	-8.10	-23.00	50.19	-1.11	-8.45	-17.05	0.00	0.00	0.00	0.00	0.00	5.98	1.67	-7.25	-23.10	3.13	40.49	20.00	9.45	-3.28	-47.20	2.86	12.45	-47.42	0.21	-15.03	-3.63	15.14	-0.50	-20.00	4.39	0.88	62.01	-16.80	15.98	54.22	-5.00	-16.43	3.30	-16.19	-0.61	13.35	16.16	-11.39	22.70	-9.69	24.76	-0.52	0.10	2.29	-11.59	-4.57	12.08	22.86	8.54	-10.76	-0.18	0.00	-2.29
-1.69	42.65	-7.90	-9.76	-7.62	-22.08	49.46	-0.14	-12.26	-17.05	0.00	0.00	0.00	0.00	0.00	6.26	0.74	-7.91	-21.89	1.73	42.36	20.00	12.42	-4.85	-49.13	-3.38	6.75	-49.43	-4.60	-9.51	-3.63	15.31	-0.51	-20.00	2.84	0.19	62.79	-20.25	16.44	46.29	-4.15	-16.89	3.28	-15.49	-0.57	12.60	16.76	-11.58	19.96	-9.74	24.63	-0.33	0.13	2.29	-11.81	-5.42	12.53	20.68	9.62	-12.50	-0.10	-0.14	-2.11
-2.07	42.80	-8.12	-7.96	-6.62	-21.76	47.85	0.75	-14.91	-17.05	0.00	0.00	0.00	0.00	0.00	6.05	0.29	-8.29	-21.05	-0.55	45.34	20.00	14.99	-6.44	-53.40	-7.93	3.07	-52.37	-5.00	-5.90	-3.46	15.66	-0.53	-19.70	0.31	-0.35	64.67	-23.74	16.52	39.57	-1.25	-15.43	3.45	-15.14	-0.54	11.91	16.60	-11.69	16.35	-9.66	24.59	-0.37	0.37	1.93	-13.33	-6.32	12.15	20.52	9.55	-12.53	-0.13	-0.12	-2.11
-2.49	42.91	-8.23	-6.18	-5.77	-22.06	46.23	1.71	-17.28	-17.05	0.00	0.00	0.00	0.00	0.00	6.59	0.43	-8.15	-20.56	-1.95	47.27	20.00	16.91	-8.16	-58.14	-11.46	1.23	-56.29	-5.00	-3.59	-3.47	16.19	-0.56	-16.35	-2.38	-0.78	66.51	-26.40	15.94	35.07	1.20	-12.46	3.44	-14.78	-0.52	11.76	16.49	-11.56	13.18	-9.63	24.71	-0.51	0.15	2.29	-15.73	-7.01	12.35	23.02	9.58	-12.33	-0.07	-0.16	-2.11
-3.05	42.73	-8.16	-4.94	-5.43	-22.38	45.12	2.77	-19.39	-17.05	0.00	0.00	0.00	0.00	0.00	7.84	0.93	-8.04	-20.59	-3.35	47.64	20.00	18.23	-9.45	-62.30	-14.03	0.45	-60.51	-5.00	-1.94	-3.48	16.71	-0.59	-13.90	-4.75	-0.84	68.33	-27.66	15.09	32.41	2.78	-9.71	3.57	-14.80	-0.35	12.82	17.03	-11.53	9.34	-9.68	24.65	-0.52	0.10	2.29	-17.94	-7.70	12.40	27.01	9.53	-13.75	-0.15	-0.10	-2.11
-3.71	42.36	-7.94	-4.41	-5.26	-22.45	44.54	3.81	-21.37	-17.05	0.00	0.00	0.00	0.00	0.00	9.47	1.54	-7.57	-20.97	-4.21	46.37	20.00	19.70	-10.49	-65.78	-15.67	0.18	-64.37	-5.00	-0.44	-3.50	17.24	-0.62	-12.15	-6.22	-0.74	69.12	-27.83	14.50	31.11	3.44	-8.47	3.57	-14.80	-0.35	14.73	18.04	-11.29	6.00	-9.79	24.39	-0.62	0.33	2.29	-19.60	-8.77	12.67	30.88	9.62	-17.77	-0.16	-0.08	-1.93
-4.44	42.00	-7.57	-4.24	-5.08	-22.65	43.95	4.54	-23.43	-17.05	0.00	0.00	0.00	0.00	0.00	11.48	2.45	-6.83	-21.52	-4.88	44.05	20.00	21.27	-11.03	-68.04	-16.41	0.07	-66.20	-5.00	1.09	-3.50	17.59	-0.64	-10.93	-7.47	-0.74	69.12	-26.97	14.11	30.73	3.18	-8.68	3.57	-14.62	-0.34	16.52	18.63	-11.07	3.24	-9.34	24.28	-0.62	0.34	2.11	-20.07	-10.68	12.87	33.46	9.58	-22.45	-0.09	-0.15	-2.11
-5.27	41.69	-7.00	-4.23	-4.73	-23.73	43.17	5.22	-25.34	-17.05	0.00	0.00	0.00	0.00	0.00	14.02	3.36	-6.05	-22.42	-5.20	40.85	20.00	22.05	-10.72	-67.90	-15.22	0.32	-65.12	-5.00	2.34	-3.50	17.42	-0.63	-11.46	-8.01	-0.71	68.09	-24.32	13.95	31.29	2.53	-10.42	3.57	-14.80	-0.35	18.59	18.40	-11.35	1.65	-9.03	24.58	-0.46	0.26	1.93	-20.18	-12.64	12.50	35.15	9.37	-24.67	-0.06	-0.17	-2.11
-6.20	41.46	-6.23	-3.88	-4.38	-25.90	41.92	5.91	-26.77	-17.05	0.00	0.00	0.00	0.00	0.00	16.38	4.25	-5.17	-23.30	-5.34	36.56	20.00	21.76	-9.31	-65.18	-11.43	1.32	-60.64	-5.00	3.80	-3.48	16.71	-0.59	-14.11	-6.88	-1.02	65.32	-19.97	14.02	33.61	0.53	-14.31	3.44	-14.78	-0.52	20.67	18.01	-11.09	0.72	-8.61	24.82	-0.53	0.01	2.11	-19.93	-14.02	12.55	36.03	9.54	-24.71	-0.06	-0.17	-2.29
-7.35	41.34	-5.31	-3.35	-3.86	-29.13	40.50	6.55	-26.78	-17.05	0.00	0.00	0.00	0.00	0.00	18.92	5.16	-4.39	-24.35	-4.96	31.67	20.00	19.70	-6.40	-60.37	-3.66	4.95	-52.83	-5.00	3.89	-3.63	15.49	-0.52	-18.47	-3.36	-1.09	61.10	-13.88	13.76	38.00	-2.66	-18.08	3.45	-15.14	-0.54	22.42	16.96	-11.04	1.11	-8.39	24.62	-0.70	0.04	1.93	-19.42	-14.72	12.43	36.03	9.54	-24.71	-0.12	-0.13	-2.29
-8.77	40.43	-4.32	-2.82	-3.16	-33.95	39.39	6.62	-25.84	-17.05	0.00	0.00	0.00	0.00	0.00	21.47	5.67	-3.46	-25.39	-4.40	26.20	19.22	15.46	-3.26	-55.20	7.53	12.55	-43.06	-5.00	1.31	-3.61	14.26	-0.45	-20.00	1.32	-0.23	57.83	-5.49	11.24	43.70	-5.00	-19.10	3.28	-15.49	-0.57	23.86	16.13	-11.03	3.20	-9.15	24.64	-0.53	0.03	2.11	-18.58	-14.92	12.35	35.30	9.52	-24.77	-0.09	-0.15	-2.46
-10.43	40.67	-3.32	-2.82	-2.98	-40.11	39.56	6.18	-23.06	-17.05	0.00	0.00	0.00	0.00	0.00	23.64	6.08	-2.91	-26.24	-3.69	20.48	15.83	10.34	-1.79	-52.31	17.95	20.43	-33.89	-5.00	0.58	-3.73	13.57	-0.24	-20.00	5.09	1.08	57.52	1.22	7.94	50.50	-5.00	-18.58	3.30	-16.19	-0.61	24.60	15.28	-10.78	8.28	-9.68	24.38	-0.55	0.44	2.29	-17.69	-14.03	12.46	35.48	9.52	-24.76	-0.14	-0.11	-2.29
-12.25	41.18	-2.38	-3.35	-3.51	-46.38	41.16	5.06	-17.92	-17.05	0.00	0.00	0.00	0.00	0.00	25.41	6.03	-2.72	-27.08	-2.46	14.61	16.24	6.80	-1.35	-52.22	25.03	24.73	-27.11	-5.00	4.58	-4.08	13.39	-0.22	-20.00	6.65	1.52	59.26	3.39	6.67	57.49	-5.00	-17.66	3.14	-16.89	-0.65	23.00	15.80	-11.05	17.85	-9.56	24.66	-0.27	0.23	2.11	-16.47	-12.98	12.35	36.75	9.56	-24.62	-0.17	-0.05	-2.29
-14.10	41.74	-1.43	-4.23	-4.03	-50.86	43.42	3.66	-11.48	-17.05	0.00	0.00	0.00	0.00	0.00	26.62	5.91	-2.96	-27.75	-1.08	8.66	18.14	4.98	-1.26	-53.91	28.56	25.49	-23.44	-5.00	6.79	-4.26	13.57	-0.24	-20.00	6.60	1.53	60.75	2.52	7.00	61.75	-5.00	-17.18	3.15	-17.24	-0.67	18.25	17.71	-11.35	31.55	-9.77	24.84	-0.25	0.25	2.29	-13.60	-12.24	12.33	35.84	9.53	-24.73	-0.16	-0.07	-2.29
